<svg width="156" height="71" viewBox="0 0 156 71" fill="none" xmlns="http://www.w3.org/2000/svg">
<g clip-path="url(#clip0_1_81)">
<path d="M22.9231 32.0963C22.9036 35.1235 22.8839 38.1707 22.7613 41.326C22.6786 41.5924 22.7329 41.6986 22.7873 41.8047C22.8136 41.9392 22.84 42.0737 22.7134 42.361C22.6353 42.7522 22.71 42.9907 22.7848 43.2292C22.8119 52.0774 22.8391 60.9256 22.713 69.9742C22.4571 70.2726 22.3425 70.384 22.2344 70.489L22.2231 70.5C15.3661 70.5239 8.50916 70.5478 1.47377 70.4084C1.11962 70.079 0.942314 69.9116 0.766078 69.7452C0.766078 69.7452 0.702255 69.6192 0.822712 69.5164C0.884197 69.2903 0.825226 69.167 0.766255 69.0437C0.756997 68.9131 0.745164 68.7826 0.733331 68.652C0.70797 68.3721 0.68261 68.0923 0.682596 67.8124C0.681569 46.4797 0.685166 25.147 0.854133 3.58751C1.12561 3.00518 1.23124 2.64955 1.33686 2.29397C8.18736 2.26167 22 2.5 22.5141 2.46651C22.5 3 22.6448 4.06559 22.5803 4.41517C22.494 5.42401 22.5693 6.20991 22.6447 6.99582C22.6763 7.14749 22.7079 7.29916 22.5998 7.61084C22.5209 7.98478 22.5817 8.19872 22.6425 8.41266C22.6771 8.7849 22.7116 9.15714 22.6044 9.71336C22.4023 10.0962 22.3419 10.295 22.2816 10.4938L22.6454 10.4146C22.7852 10.3586 22.9358 10.3137 23.0864 10.2689C23.4109 10.1723 23.7355 10.0757 23.9521 9.8668C27.1088 6.82294 30.5146 4.18861 34.4942 2.23802C43.7811 -2.31393 61.6252 -0.0623245 68.0993 12.6909C68.1621 12.8147 68.2405 12.9307 68.3618 13.1103C68.4341 13.2175 68.5218 13.3473 68.6306 13.5149C69.2973 12.8244 69.9525 12.1347 70.6037 11.4493C72.0047 9.97457 73.3872 8.51935 74.823 7.1202C84.5849 -2.39259 100.194 -1.02823 108.614 4.46906C114.8 8.50758 117.545 14.4243 118.226 21.5374C118.338 22.712 118.394 23.892 118.358 25.2655C118.299 25.5792 118.359 25.6968 118.418 25.8144C118.427 26.9444 118.438 28.0744 118.45 29.2044C118.474 31.6768 118.498 34.1517 118.5 36.6242C118.508 47.4429 118.497 58.2617 118.365 69.2752C118.298 69.5874 118.359 69.705 118.419 69.8225C118.419 69.8225 118.474 69.9431 118.333 70.0546C118.08 70.2759 117.968 70.3858 117.855 70.4956C110.879 70.5187 103.903 70.5419 96.7297 70.4511C96.464 70.2399 96.3714 70.1764 96.2553 70.1492C96.2545 65.9978 96.2536 61.8463 96.3262 57.4937C96.352 57.2016 96.3042 57.1107 96.2565 57.0198L96.2384 51.4717C96.2177 45.0907 96.197 38.7098 96.1709 32.3289C96.1699 32.0818 96.1648 31.8337 96.1595 31.5821C96.1461 30.9374 96.132 30.2631 96.1854 29.484C96.223 29.1942 96.1546 29.1072 96.0862 29.0203C94.4633 20.6673 87.7029 16.0081 79.8913 17.8589C74.7336 19.081 71.0182 23.3636 70.7797 28.6639C70.6528 31.4849 70.6675 34.3128 70.6822 37.1401C70.6875 38.1516 70.6928 39.1632 70.6915 40.1743L70.689 42.4066C70.6789 51.5242 70.6687 60.6546 70.5239 69.9625C70.2674 70.2706 70.155 70.381 70.0472 70.4869L70.0398 70.4941C63.0634 70.5205 56.0871 70.5469 48.9148 70.4563C48.651 70.2414 48.5591 70.1786 48.4432 70.151C48.4346 68.4095 48.4253 66.6679 48.4159 64.9264C48.395 61.0159 48.374 57.1055 48.3611 53.1951C48.3362 45.594 48.3244 37.9928 48.43 30.177C48.4835 29.7617 48.414 29.561 48.3445 29.3603C47.7329 26.3941 46.9223 23.5492 44.6469 21.3193C40.9498 17.6961 34.6999 16.3788 29.8524 18.5872C24.9724 20.8104 22.9782 24.9542 22.9366 30.1658C22.9314 30.8091 22.9273 31.4521 22.9231 32.0963Z" fill="black"/>
<path d="M137.948 70.0408C132.084 67.2326 129.164 61.8064 130.209 55.8354C131.194 50.2051 135.836 45.6851 141.24 45.0928C146.973 44.4646 152.065 47.0572 154.592 51.8914C157 56.4996 156.256 62.8104 152.845 66.6902C149.251 70.7795 143.515 72.1005 137.948 70.0408Z" fill="black"/>
</g>
<defs>
<clipPath id="clip0_1_81">
<rect width="156" height="71" fill="white"/>
</clipPath>
</defs>
</svg>
