<svg width="392" height="119" viewBox="0 0 392 119" fill="none" xmlns="http://www.w3.org/2000/svg">
<g clip-path="url(#clip0_1_2)">
<path d="M22.9231 78.0963C22.9035 81.1235 22.8838 84.1707 22.7613 87.326C22.6785 87.5924 22.7329 87.6986 22.7873 87.8047C22.8136 87.9392 22.84 88.0737 22.7134 88.361C22.6352 88.7522 22.71 88.9907 22.7848 89.2292C22.8119 98.0774 22.8391 106.926 22.713 115.974C22.4571 116.273 22.3425 116.384 22.2344 116.489L22.2231 116.5C15.3661 116.524 8.50913 116.548 1.47374 116.408C1.11959 116.079 0.942283 115.912 0.766048 115.745C0.766048 115.745 0.702224 115.619 0.822681 115.516C0.884166 115.29 0.825196 115.167 0.766224 115.044C0.756966 114.913 0.745133 114.783 0.7333 114.652C0.70794 114.372 0.682579 114.092 0.682565 113.812C0.681539 92.4797 0.685135 71.147 0.854102 49.5875C1.12558 49.0052 1.23121 48.6496 1.33683 48.294C8.18733 48.2617 22 48.5 22.514 48.4665C22.5 49 22.6447 50.0656 22.5803 50.4152C22.4939 51.424 22.5693 52.2099 22.6447 52.9958C22.6763 53.1475 22.7079 53.2992 22.5998 53.6108C22.5208 53.9848 22.5817 54.1987 22.6425 54.4127C22.677 54.7849 22.7116 55.1571 22.6043 55.7134C22.4022 56.0962 22.3419 56.295 22.2816 56.4938L22.6453 56.4146C22.7852 56.3586 22.9358 56.3137 23.0864 56.2689C23.4109 56.1723 23.7354 56.0757 23.9521 55.8668C27.1088 52.8229 30.5146 50.1886 34.4942 48.238C43.781 43.6861 61.6251 45.9377 68.0992 58.6909C68.1621 58.8147 68.2404 58.9307 68.3617 59.1103C68.4341 59.2175 68.5218 59.3473 68.6305 59.5149C69.2972 58.8244 69.9525 58.1347 70.6036 57.4493C72.0047 55.9746 73.3872 54.5193 74.823 53.1202C84.5849 43.6074 100.194 44.9718 108.614 50.4691C114.8 54.5076 117.545 60.4243 118.226 67.5374C118.338 68.712 118.394 69.892 118.358 71.2655C118.299 71.5792 118.359 71.6968 118.418 71.8144C118.427 72.9444 118.438 74.0744 118.45 75.2044C118.474 77.6768 118.498 80.1517 118.5 82.6242C118.508 93.4429 118.497 104.262 118.365 115.275C118.298 115.587 118.359 115.705 118.419 115.823C118.419 115.823 118.474 115.943 118.333 116.055C118.08 116.276 117.968 116.386 117.855 116.496C110.879 116.519 103.903 116.542 96.7297 116.451C96.4639 116.24 96.3713 116.176 96.2553 116.149C96.2544 111.998 96.2536 107.846 96.3262 103.494C96.352 103.202 96.3042 103.111 96.2564 103.02L96.2383 97.4717C96.2177 91.0907 96.197 84.7098 96.1709 78.3289C96.1699 78.0818 96.1647 77.8337 96.1595 77.5821C96.146 76.9374 96.132 76.2631 96.1854 75.484C96.223 75.1942 96.1546 75.1072 96.0862 75.0203C94.4633 66.6673 87.7029 62.0081 79.8913 63.8589C74.7335 65.081 71.0181 69.3636 70.7797 74.6639C70.6528 77.4849 70.6675 80.3128 70.6822 83.1401C70.6875 84.1516 70.6927 85.1632 70.6915 86.1743L70.689 88.4066C70.6788 97.5242 70.6687 106.655 70.5239 115.962C70.2673 116.271 70.155 116.381 70.0472 116.487L70.0398 116.494C63.0634 116.521 56.087 116.547 48.9148 116.456C48.651 116.241 48.5591 116.179 48.4432 116.151C48.4346 114.409 48.4252 112.668 48.4159 110.926C48.3949 107.016 48.3739 103.106 48.3611 99.1951C48.3362 91.594 48.3244 83.9928 48.43 76.177C48.4835 75.7617 48.414 75.561 48.3444 75.3603C47.7329 72.3941 46.9222 69.5492 44.6469 67.3193C40.9498 63.6961 34.6999 62.3788 29.8524 64.5872C24.9723 66.8104 22.9782 70.9542 22.9365 76.1658C22.9314 76.8091 22.9272 77.4521 22.9231 78.0963Z" fill="#1D1A15"/>
<path d="M188.334 0.792643C188.448 1.44033 188.661 2.08795 188.662 2.73572C188.679 25.7697 188.677 48.8038 188.677 71.8378C188.677 72.4718 188.677 73.1057 188.677 74.1431C190.528 72.3861 192.155 70.9068 193.709 69.3549C200.306 62.7688 206.859 56.1373 213.5 49.5962C214.211 48.8956 215.395 48.6763 216.55 48.3759C216.955 48.4585 217.168 48.399 217.382 48.3395C222.187 48.2993 226.992 48.247 231.798 48.2231C235.142 48.2064 238.486 48.2287 242.001 48.4269C242.181 48.7137 242.19 48.8071 242.2 48.9006C235.181 55.975 228.168 63.0546 221.142 70.1216C217.738 73.5459 214.31 76.9465 210.853 80.3973C222.651 92.2165 234.319 103.906 245.916 115.758C245.437 116.143 245.03 116.367 244.622 116.59C244.47 116.627 244.318 116.664 244.019 116.584C243.768 116.512 243.664 116.556 243.559 116.599C237.458 116.626 231.357 116.662 225.256 116.676C223.203 116.68 221.15 116.629 218.912 116.501C218.633 116.416 218.539 116.433 218.444 116.449C217.942 116.065 217.389 115.731 216.945 115.288C208.676 107.045 200.44 98.7692 192.132 90.5671C191.31 89.7559 190.063 89.3772 188.78 88.8892C188.609 89.3 188.672 89.6194 188.736 89.9388C188.775 94.6361 188.828 99.3333 188.849 104.031C188.867 107.852 188.846 111.673 188.726 115.688C188.578 115.921 188.516 115.986 188.523 115.994C188.584 116.067 188.658 116.13 188.727 116.196C188.378 116.311 188.029 116.524 187.679 116.525C181.109 116.545 174.539 116.547 167.969 116.523C167.576 116.522 167.185 116.273 166.923 115.961C166.982 115.32 166.911 114.857 166.839 114.395C166.818 114.042 166.779 113.689 166.779 113.336C166.779 76.0603 166.782 38.7842 166.919 1.3241C167.183 1.01999 167.312 0.899878 167.442 0.779769C168.158 0.746222 168.874 0.712678 169.832 0.848449C174.443 1.06625 178.812 1.11946 183.181 1.1468C183.365 1.14795 183.551 0.908654 183.737 0.781372C185.038 0.747111 186.339 0.712849 187.831 0.795357C188.126 0.872298 188.23 0.832469 188.334 0.792643Z" fill="#1C1914"/>
<path d="M380.235 56.6085C388.665 64.4253 392.117 73.9733 391.503 85.3115C390.595 102.068 377.029 114.287 362.933 117.12C352.258 119.265 341.876 119.284 331.649 115.284C317.183 109.628 308.629 96.3815 309.403 80.8722C310.156 65.7964 319.297 53.8758 334.572 48.7739C349.438 43.8083 363.707 45.116 376.944 54.0182C378.065 54.7721 379.081 55.6824 380.235 56.6085ZM343.71 66.1677C336.52 69.5033 333.115 75.1991 333.18 83.0772C333.239 90.3063 337.264 96.2943 343.769 98.784C350.641 101.414 358.707 99.7069 363.36 94.6367C368.674 88.8449 369.371 79.0525 364.94 72.4139C360.425 65.6478 352.082 63.1297 343.71 66.1677Z" fill="#1C1914"/>
<path d="M311.263 54.0969C308.84 58.9634 306.467 63.7075 304.255 68.1281C300.777 67.1747 297.515 65.8501 294.141 65.437C284.177 64.2168 276.794 70.774 276.473 80.8385C276.366 84.1991 276.455 87.566 276.455 90.9299C276.455 98.9713 276.457 107.013 276.454 115.054C276.454 115.513 276.415 115.973 276.39 116.521C268.998 116.521 261.705 116.521 254.305 116.521C254.305 93.8163 254.305 71.092 254.305 48.29C261.595 48.29 268.836 48.29 276.27 48.29C276.27 52.1071 276.5 60 276.5 60C276.5 60 277.913 58.363 278.105 58.1155C281.623 53.5786 285.573 49.5057 291.16 47.6563C296.583 45.8613 303.241 45.7927 308.565 47.7143C310.16 48.2901 311.689 49.0501 313.395 49.7908C312.652 51.2844 311.982 52.6294 311.263 54.0969Z" fill="#1D1A15"/>
<path d="M136.966 48.0416C142.447 48.0416 147.751 48.0416 153.156 48.0416C153.156 70.8583 153.156 93.5935 153.156 116.434C145.839 116.434 138.496 116.434 131.048 116.434C131.048 93.7213 131.048 70.9863 131.048 48.0416C132.942 48.0416 134.866 48.0416 136.966 48.0416Z" fill="#1C1914"/>
<path d="M137.262 30.4149C131.236 27.5217 128.236 21.9312 129.31 15.7792C130.322 9.97838 135.091 5.32148 140.645 4.7113C146.536 4.06409 151.768 6.73516 154.365 11.7158C156.84 16.4636 156.075 22.9655 152.571 26.9628C148.877 31.176 142.983 32.537 137.262 30.4149Z" fill="#1C1914"/>
</g>
<defs>
<clipPath id="clip0_1_2">
<rect width="392" height="119" fill="white"/>
</clipPath>
</defs>
</svg>
