<svg width="258" height="258" viewBox="0 0 258 258" fill="none" xmlns="http://www.w3.org/2000/svg">
<rect width="258" height="258" rx="129" fill="#1F1B16"/>
<g clip-path="url(#clip0_2_103)">
<path d="M73.9231 125.096C73.9035 128.124 73.8838 131.171 73.7613 134.326C73.6785 134.592 73.7329 134.699 73.7873 134.805C73.8136 134.939 73.84 135.074 73.7134 135.361C73.6352 135.752 73.71 135.991 73.7848 136.229C73.8119 145.077 73.8391 153.926 73.713 162.974C73.4571 163.273 73.3425 163.384 73.2344 163.489L73.2231 163.5C66.3661 163.524 59.5091 163.548 52.4737 163.408C52.1196 163.079 51.9423 162.912 51.766 162.745C51.766 162.745 51.7022 162.619 51.8227 162.516C51.8842 162.29 51.8252 162.167 51.7662 162.044C51.757 161.913 51.7451 161.783 51.7333 161.652C51.7079 161.372 51.6826 161.092 51.6826 160.812C51.6815 139.48 51.6851 118.147 51.8541 96.5875C52.1256 96.0052 52.2312 95.6496 52.3368 95.294C59.1873 95.2617 73 95.5 73.514 95.4665C73.5 96 73.6447 97.0656 73.5803 97.4152C73.4939 98.424 73.5693 99.2099 73.6447 99.9958C73.6763 100.147 73.7079 100.299 73.5998 100.611C73.5208 100.985 73.5817 101.199 73.6425 101.413C73.677 101.785 73.7116 102.157 73.6043 102.713C73.4022 103.096 73.3419 103.295 73.2816 103.494L73.6453 103.415C73.7852 103.359 73.9358 103.314 74.0864 103.269C74.4109 103.172 74.7354 103.076 74.9521 102.867C78.1088 99.8229 81.5146 97.1886 85.4942 95.238C94.781 90.6861 112.625 92.9377 119.099 105.691C119.162 105.815 119.24 105.931 119.362 106.11C119.434 106.217 119.522 106.347 119.631 106.515C120.297 105.824 120.952 105.135 121.604 104.449C123.005 102.975 124.387 101.519 125.823 100.12C135.585 90.6074 151.194 91.9718 159.614 97.4691C165.8 101.508 168.545 107.424 169.226 114.537C169.338 115.712 169.394 116.892 169.358 118.266C169.299 118.579 169.359 118.697 169.418 118.814C169.427 119.944 169.438 121.074 169.45 122.204C169.474 124.677 169.498 127.152 169.5 129.624C169.508 140.443 169.497 151.262 169.365 162.275C169.298 162.587 169.359 162.705 169.419 162.823C169.419 162.823 169.474 162.943 169.333 163.055C169.08 163.276 168.968 163.386 168.855 163.496C161.879 163.519 154.903 163.542 147.73 163.451C147.464 163.24 147.371 163.176 147.255 163.149C147.254 158.998 147.254 154.846 147.326 150.494C147.352 150.202 147.304 150.111 147.256 150.02L147.238 144.472C147.218 138.091 147.197 131.71 147.171 125.329C147.17 125.082 147.165 124.834 147.159 124.582C147.146 123.937 147.132 123.263 147.185 122.484C147.223 122.194 147.155 122.107 147.086 122.02C145.463 113.667 138.703 109.008 130.891 110.859C125.734 112.081 122.018 116.364 121.78 121.664C121.653 124.485 121.667 127.313 121.682 130.14C121.687 131.152 121.693 132.163 121.692 133.174L121.689 135.407C121.679 144.524 121.669 153.655 121.524 162.962C121.267 163.271 121.155 163.381 121.047 163.487L121.04 163.494C114.063 163.521 107.087 163.547 99.9148 163.456C99.651 163.241 99.5591 163.179 99.4432 163.151C99.4346 161.409 99.4252 159.668 99.4159 157.926C99.3949 154.016 99.3739 150.106 99.3611 146.195C99.3362 138.594 99.3244 130.993 99.43 123.177C99.4835 122.762 99.414 122.561 99.3444 122.36C98.7329 119.394 97.9222 116.549 95.6469 114.319C91.9498 110.696 85.6999 109.379 80.8524 111.587C75.9723 113.81 73.9782 117.954 73.9365 123.166C73.9314 123.809 73.9272 124.452 73.9231 125.096Z" fill="white"/>
<path d="M188.948 163.041C183.084 160.233 180.164 154.806 181.209 148.835C182.194 143.205 186.836 138.685 192.24 138.093C197.973 137.465 203.065 140.057 205.592 144.891C208 149.5 207.256 155.81 203.845 159.69C200.251 163.779 194.515 165.1 188.948 163.041Z" fill="white"/>
</g>
<defs>
<clipPath id="clip0_2_103">
<rect width="156" height="71" fill="white" transform="translate(51 93)"/>
</clipPath>
</defs>
</svg>
